<svg width="269" height="50" viewBox="0 0 269 50" fill="none" xmlns="http://www.w3.org/2000/svg">
<path d="M114.63 19.0869C116.232 19.0869 117.682 19.5555 118.959 20.4854C119.063 20.2637 119.204 20.0613 119.375 19.8857C120.192 19.0379 121.618 19.0331 122.459 19.875C122.666 20.0763 122.83 20.3169 122.94 20.583C123.052 20.8492 123.108 21.1355 123.105 21.4238V34.583C123.105 37.2751 122.426 40.2249 121.093 41.7002C119.736 43.2023 117.804 43.9648 115.351 43.9648C112.865 43.9648 110.607 43.4128 108.646 42.3291C108.017 41.9435 107.687 41.3707 107.687 40.7012C107.687 40.1084 107.872 39.6008 108.236 39.1914C108.722 38.6431 109.226 38.5294 109.564 38.5293C109.897 38.5263 110.229 38.5869 110.539 38.708C111.951 39.4135 113.509 39.7763 115.087 39.7666C117.626 39.7664 118.758 37.7088 118.758 34.9658V34.8047C117.518 35.6418 116.111 36.0645 114.556 36.0645C112.479 36.0644 110.671 35.3537 109.186 33.9521C107.47 32.3669 106.597 30.2212 106.597 27.5762C106.597 24.931 107.466 22.7842 109.189 21.1924C110.674 19.7997 112.504 19.087 114.63 19.0869ZM82.8105 19.0889C84.9359 19.0889 86.7781 19.8558 88.2891 21.3662C89.9348 23.0108 90.7715 25.1516 90.7715 27.7236C90.7715 30.3367 89.9342 32.4882 88.2842 34.1172C86.7513 35.6057 84.9074 36.3584 82.7969 36.3584C81.3031 36.3662 79.8426 35.9191 78.6094 35.0762V41.8047C78.6093 42.1391 78.3905 42.4546 77.9541 42.7451C77.5174 43.0356 77.0043 43.1816 76.4209 43.1816C75.8134 43.1816 75.3034 43.0391 74.8877 42.7607C74.4718 42.4821 74.2646 42.1598 74.2646 41.7998V21.3936C74.2612 21.1094 74.315 20.8274 74.4229 20.5645C74.5305 20.3015 74.69 20.0624 74.8916 19.8623C75.7098 19.043 77.1579 19.0412 77.9814 19.8623C78.1677 20.0464 78.3181 20.2637 78.4248 20.5029C79.6988 19.5767 81.2355 19.081 82.8105 19.0889ZM131.931 19.0508C133.934 19.0508 135.649 19.6846 137.075 20.9521C138.501 22.2196 139.214 23.8121 139.214 25.7295C139.214 26.4306 139.126 27.0075 138.948 27.4639C138.77 27.9199 138.501 28.2391 138.135 28.4268C137.82 28.596 137.481 28.7137 137.129 28.7754C136.731 28.8284 136.329 28.8522 135.927 28.8467H128.748V29.377C128.748 30.3893 129.124 31.2092 129.877 31.835C130.63 32.4606 131.632 32.7721 132.884 32.7695C133.779 32.7695 134.662 32.546 135.534 32.0986C136.406 31.6515 136.973 31.4287 137.232 31.4287C137.726 31.4288 138.139 31.6564 138.469 32.1172C138.798 32.5782 138.964 33.0184 138.964 33.4434C138.964 34.1023 138.37 34.7562 137.182 35.4043C135.993 36.0522 134.513 36.3765 132.743 36.377C130.221 36.3769 128.165 35.7104 126.574 34.3789C124.984 33.0473 124.188 31.297 124.187 29.1279V26.123C124.187 24.1904 124.941 22.5283 126.45 21.1367C127.959 19.7452 129.786 19.0501 131.931 19.0508ZM146.809 19.0508C148.268 19.0508 149.571 19.2752 150.716 19.7227C151.861 20.1702 152.432 20.7122 152.43 21.3486C152.43 21.7509 152.271 22.2155 151.954 22.7461C151.637 23.2764 151.241 23.542 150.77 23.542C150.582 23.542 150.07 23.3947 149.232 23.0996C148.395 22.8045 147.611 22.6569 146.88 22.6572C146.077 22.6572 145.463 22.8181 145.038 23.1396C144.614 23.4599 144.399 23.8153 144.399 24.2051C144.399 24.5948 144.614 24.9178 145.038 25.168C145.462 25.418 145.989 25.6169 146.61 25.7529C147.29 25.9063 147.962 26.0963 148.621 26.3213C149.307 26.5488 149.973 26.83 150.614 27.1631C151.225 27.4845 151.743 27.9844 152.156 28.6611C152.569 29.3378 152.781 30.1562 152.781 31.1191C152.781 32.753 152.209 34.0374 151.065 34.9727C149.922 35.9077 148.325 36.3762 146.275 36.377C144.507 36.377 142.998 36.0711 141.748 35.459C140.498 34.8471 139.874 34.1381 139.874 33.334C139.874 32.911 140.029 32.4694 140.34 32.0088C140.648 31.5499 141.008 31.3214 141.412 31.3213C141.673 31.3213 142.002 31.44 142.396 31.6777C142.791 31.9153 143.308 32.1523 143.954 32.4023C144.6 32.6525 145.361 32.7715 146.244 32.7715C147.985 32.7714 148.857 32.2782 148.858 31.293C148.858 30.743 148.57 30.3077 147.993 29.9863C147.417 29.6652 146.721 29.4019 145.906 29.1963C145.093 28.9908 144.274 28.7442 143.448 28.457C142.628 28.1738 141.9 27.6736 141.342 27.0098C140.763 26.3332 140.474 25.4668 140.476 24.4111C140.476 22.9483 140.982 21.6893 141.996 20.6348C143.01 19.5804 144.614 19.0524 146.809 19.0508ZM98.8711 19.0869C101.111 19.0869 102.881 19.7927 104.142 21.1865C105.259 22.3927 105.83 23.9198 105.828 25.7207V34.959C105.829 35.297 105.609 35.6114 105.171 35.9014C104.732 36.1913 104.221 36.3359 103.638 36.3359C103.029 36.3359 102.519 36.1976 102.104 35.916C101.713 35.6522 101.507 35.3525 101.485 35.0166C101.2 35.2026 100.897 35.3821 100.569 35.5557C99.558 36.088 98.2823 36.3584 96.7783 36.3584C95.2225 36.3583 93.899 35.8952 92.8457 34.9766C91.718 33.9898 91.1476 32.6895 91.1475 31.1104C91.1475 29.3866 91.8138 28.0125 93.1299 27.0273C94.4645 26.0172 96.3572 25.5049 98.7529 25.5049H101.454C101.381 24.7671 101.164 24.235 100.801 23.9219C99.856 23.1061 97.5752 23.0366 94.709 23.9521C94.0121 24.1352 93.3483 24.0974 92.7334 23.5127C92.346 23.1437 92.1494 22.6177 92.1494 21.9512C92.1494 21.5038 92.3145 20.6837 93.4229 20.2119C95.1437 19.471 96.9975 19.088 98.8711 19.0869ZM66.0498 18.874C68.0544 18.8741 69.7698 19.5079 71.1963 20.7754C72.6226 22.0429 73.3352 23.635 73.335 25.5518C73.335 26.2547 73.2475 26.83 73.0703 27.2852C72.8933 27.7402 72.6216 28.0621 72.2568 28.248C71.9415 28.4188 71.6003 28.5373 71.2471 28.5986C70.8488 28.6517 70.4476 28.6755 70.0459 28.6699H62.8662V29.2002C62.8662 30.2113 63.2439 31.0306 63.999 31.6582C64.7542 32.2807 65.7534 32.5938 67.0049 32.5938C67.9014 32.5937 68.7843 32.3701 69.6582 31.9209C70.5321 31.4718 71.0938 31.251 71.3535 31.251C71.8491 31.251 72.261 31.4811 72.5898 31.9404C72.9207 32.4003 73.0859 32.8401 73.0859 33.2666C73.0859 33.9251 72.4911 34.5787 71.3027 35.2275C70.1147 35.8763 68.6352 36.1999 66.8652 36.1992C64.3425 36.1992 62.2857 35.5341 60.6953 34.2031C59.1049 32.8722 58.308 31.1216 58.3057 28.9521V25.9463C58.3057 24.0129 59.06 22.3508 60.5684 20.9609C62.0768 19.571 63.9043 18.8756 66.0498 18.874ZM29.7422 11.625C30.1088 11.6581 30.0988 12.3447 30.0986 12.3535V21.5859C30.451 20.8242 31.0195 20.183 31.7949 19.6602C32.5701 19.1373 33.4934 18.874 34.5547 18.874C36.181 18.874 37.6015 19.5814 38.8154 20.9961C40.0295 22.411 40.6364 24.0965 40.6357 26.0518V34.4365C40.6357 34.885 40.4058 35.2382 39.9463 35.4961C39.4869 35.754 38.9502 35.8839 38.3379 35.8857C37.7886 35.8956 37.2462 35.7615 36.7646 35.4971C36.3037 35.2376 36.0742 34.8863 36.0742 34.4395V26.0791C36.0742 25.2797 35.7671 24.5511 35.1543 23.8936C34.5416 23.2362 33.823 22.9065 32.998 22.9053C32.2217 22.9053 31.5437 23.1999 30.9648 23.7881C30.3862 24.3763 30.0975 25.14 30.0986 26.0791V34.4365C30.0986 34.7884 29.8685 35.1193 29.4092 35.4248C28.9499 35.7299 28.4134 35.8828 27.7998 35.8828C27.1638 35.8828 26.6273 35.735 26.1904 35.4395C25.7535 35.1439 25.536 34.8088 25.5371 34.4336V21.7676C25.5671 21.144 25.7064 20.5302 25.9492 19.9551L29.1582 12.29C29.4243 11.5883 29.7326 11.6237 29.7422 11.625ZM44.5176 19.0869C45.1491 19.0869 45.6805 19.2159 46.1006 19.4756C46.5205 19.7352 46.7294 20.0754 46.7295 20.5V34.4365C46.7295 34.7884 46.5072 35.1197 46.0645 35.4268C45.6218 35.734 45.1089 35.8857 44.5195 35.8857C43.9077 35.8857 43.394 35.7377 42.9746 35.4424C42.5551 35.1471 42.3438 34.8096 42.3438 34.4365V20.5C42.3438 20.0754 42.5488 19.7358 42.9551 19.4756C43.3615 19.2154 43.8859 19.0869 44.5176 19.0869ZM50.916 11.874C51.53 11.874 52.068 12.0026 52.5273 12.2646C52.9864 12.5267 53.2168 12.8484 53.2168 13.2334V19.0869H57.3877C57.7442 19.0869 58.0255 19.2647 58.2383 19.6211C58.4509 19.9776 58.5547 20.4014 58.5547 20.8887C58.5546 21.3757 58.4496 21.7963 58.2383 22.1533C58.0266 22.5104 57.7431 22.6914 57.3877 22.6914H53.2168V30.0664C53.2168 30.7166 53.3636 31.1797 53.6582 31.4482C53.9529 31.7166 54.4673 31.8506 55.1973 31.8506H56.5752C57.1871 31.8506 57.6669 32.0487 58.0068 32.4443C58.3476 32.8318 58.5315 33.3327 58.5225 33.8486C58.5224 34.4164 58.3484 34.8968 58.0068 35.29C57.6653 35.6835 57.1871 35.8848 56.5752 35.8848H55.1982C50.8348 35.8835 48.6539 33.9942 48.6553 30.2178V13.2715C48.6553 12.877 48.8924 12.5424 49.3623 12.2744C49.8359 12.0067 50.3722 11.8687 50.916 11.874ZM25.8379 6.03516C26.4754 6.03533 27.8276 6.57492 28.4883 6.95215C29.1491 7.32945 29.4785 7.77816 29.4785 8.29688C29.4872 8.5175 29.4386 8.73662 29.3369 8.93262L18.4219 35.0635C18.2099 35.6057 17.6092 35.8777 16.6191 35.8789C15.5823 35.8789 14.9551 35.6061 14.7441 35.0654L12.0225 27.3564L9.33496 35.0312C9.12173 35.5957 8.47286 35.8792 7.38867 35.8809C6.42383 35.8809 5.83443 35.5975 5.62207 35.0312L0.177734 21.0625C0.0660566 20.8556 0.00546182 20.6248 0 20.3896C6.02064e-05 19.8729 0.329686 19.4311 0.989258 19.0645C1.64806 18.6991 2.31092 18.5167 2.96973 18.5166C3.65222 18.5166 4.08839 18.7639 4.27734 19.2578L7.81445 29.2998L10.4658 20.5654C10.6548 19.9522 11.1736 19.6449 12.0225 19.6445C12.8721 19.6446 13.389 19.9523 13.5791 20.5654L16.1934 29.333L24.5303 6.77734C24.7193 6.28258 25.1553 6.03516 25.8379 6.03516ZM99.1074 29.3213C97.8396 29.3213 96.8551 29.4755 96.1797 29.7773C95.6947 29.9966 95.4951 30.2985 95.4951 30.8154C95.4951 31.3094 95.4957 32.3369 97.7822 32.3369C98.5418 32.3426 99.2888 32.1455 99.9473 31.7666C100.507 31.456 101.025 31.0742 101.484 30.6289V29.3213H99.1074ZM82.4307 23.2559C80.9863 23.2559 79.7383 23.8153 78.6094 24.9619V30.4844C79.7358 31.631 80.9887 32.1875 82.4307 32.1875C84.3232 32.1874 85.4967 31.4056 86.124 29.7285H86.1221C86.3206 29.1677 86.4218 28.4872 86.4248 27.7236C86.4248 26.2424 86.0547 25.1282 85.2959 24.3184C84.6007 23.6079 83.6578 23.2559 82.4307 23.2559ZM115.352 23.2012C114.586 23.2012 113.94 23.2926 113.423 23.4756C112.94 23.6435 112.495 23.9061 112.115 24.248C111.33 24.983 110.944 26.0753 110.944 27.5762C110.944 29.7678 111.733 31.0715 113.426 31.6787C113.938 31.8606 114.585 31.9531 115.352 31.9531C116.469 31.9531 117.612 31.3881 118.759 30.2646V24.8887C118.302 24.4541 117.802 24.0676 117.267 23.7354C116.693 23.3756 116.028 23.1903 115.352 23.2012ZM131.825 22.6533C131 22.6534 130.28 22.8899 129.667 23.3623C129.054 23.8349 128.748 24.4575 128.748 25.2295V26.1572H133.911C134.286 26.1572 134.552 26.0974 134.706 25.9756C134.86 25.8538 134.937 25.6192 134.938 25.2627C134.938 24.4931 134.636 23.8657 134.033 23.3809C133.431 22.8961 132.695 22.6533 131.825 22.6533ZM65.9453 22.4785C65.1204 22.4785 64.4015 22.7152 63.7891 23.1875C63.1751 23.6628 62.8682 24.2839 62.8682 25.0527L62.8662 25.9814H68.0312C68.4093 25.9814 68.6738 25.9218 68.8281 25.7988C68.9827 25.6758 69.0576 25.4424 69.0576 25.0859C69.0576 24.3163 68.7569 23.6889 68.1553 23.2041C67.5536 22.7193 66.8167 22.4773 65.9453 22.4785ZM154.604 19.0107C155.376 19.0109 155.971 19.6046 155.971 20.3447C155.955 21.0907 155.346 21.6874 154.6 21.6875C153.853 21.6875 153.244 21.0908 153.229 20.3447C153.229 19.6045 153.839 19.0107 154.604 19.0107ZM154.604 19.2793C154.01 19.2795 153.57 19.7604 153.569 20.3447C153.569 20.9388 154.01 21.4149 154.611 21.415C155.198 21.415 155.63 20.9393 155.63 20.3564C155.63 19.7736 155.198 19.2793 154.604 19.2793ZM154.596 19.6699C154.847 19.6699 154.961 19.7106 155.059 19.7676C155.101 19.8036 155.135 19.8487 155.157 19.8994C155.18 19.9501 155.191 20.0051 155.189 20.0605C155.189 20.2066 155.075 20.3208 154.913 20.3701V20.3857C155.043 20.4345 155.116 20.5325 155.156 20.7119C155.198 20.915 155.222 20.9962 155.255 21.0449H154.921C154.88 20.9962 154.855 20.8742 154.814 20.7197C154.791 20.5732 154.709 20.5078 154.538 20.5078H154.392V21.0449H154.083V19.7109C154.252 19.681 154.424 19.6672 154.596 19.6699ZM154.569 19.8896C154.512 19.8884 154.455 19.8939 154.398 19.9062L154.4 20.2891H154.544C154.715 20.2891 154.854 20.2288 154.854 20.0928C154.853 19.9706 154.765 19.8897 154.569 19.8896ZM44.5352 11.874C45.7452 11.8738 46.7262 12.8543 46.7275 14.0645C46.7279 14.498 46.5999 14.9224 46.3594 15.2832C46.1188 15.6438 45.7765 15.9255 45.376 16.0918C44.9756 16.258 44.5346 16.3011 44.1094 16.2168C43.6839 16.1325 43.2931 15.9245 42.9863 15.6182C42.6795 15.3117 42.4708 14.9204 42.3857 14.4951C42.301 14.0699 42.3439 13.6292 42.5098 13.2285C42.6754 12.8278 42.9561 12.4852 43.3164 12.2441C43.6769 12.003 44.1014 11.8741 44.5352 11.874Z" fill="#162350"/>
<path d="M114.63 19.0869C116.232 19.0869 117.682 19.5555 118.959 20.4854C119.063 20.2637 119.204 20.0613 119.375 19.8857C120.192 19.0379 121.618 19.0331 122.459 19.875C122.666 20.0763 122.83 20.3169 122.94 20.583C123.052 20.8492 123.108 21.1355 123.105 21.4238V34.583C123.105 37.2751 122.426 40.2249 121.093 41.7002C119.736 43.2023 117.804 43.9648 115.351 43.9648C112.865 43.9648 110.607 43.4128 108.646 42.3291C108.017 41.9435 107.687 41.3707 107.687 40.7012C107.687 40.1084 107.872 39.6008 108.236 39.1914C108.722 38.6431 109.226 38.5294 109.564 38.5293C109.897 38.5263 110.229 38.5869 110.539 38.708C111.951 39.4135 113.509 39.7763 115.087 39.7666C117.626 39.7664 118.758 37.7088 118.758 34.9658V34.8047C117.518 35.6418 116.111 36.0645 114.556 36.0645C112.479 36.0644 110.671 35.3537 109.186 33.9521C107.47 32.3669 106.597 30.2212 106.597 27.5762C106.597 24.931 107.466 22.7842 109.189 21.1924C110.674 19.7997 112.504 19.087 114.63 19.0869ZM82.8105 19.0889C84.9359 19.0889 86.7781 19.8558 88.2891 21.3662C89.9348 23.0108 90.7715 25.1516 90.7715 27.7236C90.7715 30.3367 89.9342 32.4882 88.2842 34.1172C86.7513 35.6057 84.9074 36.3584 82.7969 36.3584C81.3031 36.3662 79.8426 35.9191 78.6094 35.0762V41.8047C78.6093 42.1391 78.3905 42.4546 77.9541 42.7451C77.5174 43.0356 77.0043 43.1816 76.4209 43.1816C75.8134 43.1816 75.3034 43.0391 74.8877 42.7607C74.4718 42.4821 74.2646 42.1598 74.2646 41.7998V21.3936C74.2612 21.1094 74.315 20.8274 74.4229 20.5645C74.5305 20.3015 74.69 20.0624 74.8916 19.8623C75.7098 19.043 77.1579 19.0412 77.9814 19.8623C78.1677 20.0464 78.3181 20.2637 78.4248 20.5029C79.6988 19.5767 81.2355 19.081 82.8105 19.0889ZM131.931 19.0508C133.934 19.0508 135.649 19.6846 137.075 20.9521C138.501 22.2196 139.214 23.8121 139.214 25.7295C139.214 26.4306 139.126 27.0075 138.948 27.4639C138.77 27.9199 138.501 28.2391 138.135 28.4268C137.82 28.596 137.481 28.7137 137.129 28.7754C136.731 28.8284 136.329 28.8522 135.927 28.8467H128.748V29.377C128.748 30.3893 129.124 31.2092 129.877 31.835C130.63 32.4606 131.632 32.7721 132.884 32.7695C133.779 32.7695 134.662 32.546 135.534 32.0986C136.406 31.6515 136.973 31.4287 137.232 31.4287C137.726 31.4288 138.139 31.6564 138.469 32.1172C138.798 32.5782 138.964 33.0184 138.964 33.4434C138.964 34.1023 138.37 34.7562 137.182 35.4043C135.993 36.0522 134.513 36.3765 132.743 36.377C130.221 36.3769 128.165 35.7104 126.574 34.3789C124.984 33.0473 124.188 31.297 124.187 29.1279V26.123C124.187 24.1904 124.941 22.5283 126.45 21.1367C127.959 19.7452 129.786 19.0501 131.931 19.0508ZM146.809 19.0508C148.268 19.0508 149.571 19.2752 150.716 19.7227C151.861 20.1702 152.432 20.7122 152.43 21.3486C152.43 21.7509 152.271 22.2155 151.954 22.7461C151.637 23.2764 151.241 23.542 150.77 23.542C150.582 23.542 150.07 23.3947 149.232 23.0996C148.395 22.8045 147.611 22.6569 146.88 22.6572C146.077 22.6572 145.463 22.8181 145.038 23.1396C144.614 23.4599 144.399 23.8153 144.399 24.2051C144.399 24.5948 144.614 24.9178 145.038 25.168C145.462 25.418 145.989 25.6169 146.61 25.7529C147.29 25.9063 147.962 26.0963 148.621 26.3213C149.307 26.5488 149.973 26.83 150.614 27.1631C151.225 27.4845 151.743 27.9844 152.156 28.6611C152.569 29.3378 152.781 30.1562 152.781 31.1191C152.781 32.753 152.209 34.0374 151.065 34.9727C149.922 35.9077 148.325 36.3762 146.275 36.377C144.507 36.377 142.998 36.0711 141.748 35.459C140.498 34.8471 139.874 34.1381 139.874 33.334C139.874 32.911 140.029 32.4694 140.34 32.0088C140.648 31.5499 141.008 31.3214 141.412 31.3213C141.673 31.3213 142.002 31.44 142.396 31.6777C142.791 31.9153 143.308 32.1523 143.954 32.4023C144.6 32.6525 145.361 32.7715 146.244 32.7715C147.985 32.7714 148.857 32.2782 148.858 31.293C148.858 30.743 148.57 30.3077 147.993 29.9863C147.417 29.6652 146.721 29.4019 145.906 29.1963C145.093 28.9908 144.274 28.7442 143.448 28.457C142.628 28.1738 141.9 27.6736 141.342 27.0098C140.763 26.3332 140.474 25.4668 140.476 24.4111C140.476 22.9483 140.982 21.6893 141.996 20.6348C143.01 19.5804 144.614 19.0524 146.809 19.0508ZM98.8711 19.0869C101.111 19.0869 102.881 19.7927 104.142 21.1865C105.259 22.3927 105.83 23.9198 105.828 25.7207V34.959C105.829 35.297 105.609 35.6114 105.171 35.9014C104.732 36.1913 104.221 36.3359 103.638 36.3359C103.029 36.3359 102.519 36.1976 102.104 35.916C101.713 35.6522 101.507 35.3525 101.485 35.0166C101.2 35.2026 100.897 35.3821 100.569 35.5557C99.558 36.088 98.2823 36.3584 96.7783 36.3584C95.2225 36.3583 93.899 35.8952 92.8457 34.9766C91.718 33.9898 91.1476 32.6895 91.1475 31.1104C91.1475 29.3866 91.8138 28.0125 93.1299 27.0273C94.4645 26.0172 96.3572 25.5049 98.7529 25.5049H101.454C101.381 24.7671 101.164 24.235 100.801 23.9219C99.856 23.1061 97.5752 23.0366 94.709 23.9521C94.0121 24.1352 93.3483 24.0974 92.7334 23.5127C92.346 23.1437 92.1494 22.6177 92.1494 21.9512C92.1494 21.5038 92.3145 20.6837 93.4229 20.2119C95.1437 19.471 96.9975 19.088 98.8711 19.0869ZM66.0498 18.874C68.0544 18.8741 69.7698 19.5079 71.1963 20.7754C72.6226 22.0429 73.3352 23.635 73.335 25.5518C73.335 26.2547 73.2475 26.83 73.0703 27.2852C72.8933 27.7402 72.6216 28.0621 72.2568 28.248C71.9415 28.4188 71.6003 28.5373 71.2471 28.5986C70.8488 28.6517 70.4476 28.6755 70.0459 28.6699H62.8662V29.2002C62.8662 30.2113 63.2439 31.0306 63.999 31.6582C64.7542 32.2807 65.7534 32.5938 67.0049 32.5938C67.9014 32.5937 68.7843 32.3701 69.6582 31.9209C70.5321 31.4718 71.0938 31.251 71.3535 31.251C71.8491 31.251 72.261 31.4811 72.5898 31.9404C72.9207 32.4003 73.0859 32.8401 73.0859 33.2666C73.0859 33.9251 72.4911 34.5787 71.3027 35.2275C70.1147 35.8763 68.6352 36.1999 66.8652 36.1992C64.3425 36.1992 62.2857 35.5341 60.6953 34.2031C59.1049 32.8722 58.308 31.1216 58.3057 28.9521V25.9463C58.3057 24.0129 59.06 22.3508 60.5684 20.9609C62.0768 19.571 63.9043 18.8756 66.0498 18.874ZM29.7422 11.625C30.1088 11.6581 30.0988 12.3447 30.0986 12.3535V21.5859C30.451 20.8242 31.0195 20.183 31.7949 19.6602C32.5701 19.1373 33.4934 18.874 34.5547 18.874C36.181 18.874 37.6015 19.5814 38.8154 20.9961C40.0295 22.411 40.6364 24.0965 40.6357 26.0518V34.4365C40.6357 34.885 40.4058 35.2382 39.9463 35.4961C39.4869 35.754 38.9502 35.8839 38.3379 35.8857C37.7886 35.8956 37.2462 35.7615 36.7646 35.4971C36.3037 35.2376 36.0742 34.8863 36.0742 34.4395V26.0791C36.0742 25.2797 35.7671 24.5511 35.1543 23.8936C34.5416 23.2362 33.823 22.9065 32.998 22.9053C32.2217 22.9053 31.5437 23.1999 30.9648 23.7881C30.3862 24.3763 30.0975 25.14 30.0986 26.0791V34.4365C30.0986 34.7884 29.8685 35.1193 29.4092 35.4248C28.9499 35.7299 28.4134 35.8828 27.7998 35.8828C27.1638 35.8828 26.6273 35.735 26.1904 35.4395C25.7535 35.1439 25.536 34.8088 25.5371 34.4336V21.7676C25.5671 21.144 25.7064 20.5302 25.9492 19.9551L29.1582 12.29C29.4243 11.5883 29.7326 11.6237 29.7422 11.625ZM44.5176 19.0869C45.1491 19.0869 45.6805 19.2159 46.1006 19.4756C46.5205 19.7352 46.7294 20.0754 46.7295 20.5V34.4365C46.7295 34.7884 46.5072 35.1197 46.0645 35.4268C45.6218 35.734 45.1089 35.8857 44.5195 35.8857C43.9077 35.8857 43.394 35.7377 42.9746 35.4424C42.5551 35.1471 42.3438 34.8096 42.3438 34.4365V20.5C42.3438 20.0754 42.5488 19.7358 42.9551 19.4756C43.3615 19.2154 43.8859 19.0869 44.5176 19.0869ZM50.916 11.874C51.53 11.874 52.068 12.0026 52.5273 12.2646C52.9864 12.5267 53.2168 12.8484 53.2168 13.2334V19.0869H57.3877C57.7442 19.0869 58.0255 19.2647 58.2383 19.6211C58.4509 19.9776 58.5547 20.4014 58.5547 20.8887C58.5546 21.3757 58.4496 21.7963 58.2383 22.1533C58.0266 22.5104 57.7431 22.6914 57.3877 22.6914H53.2168V30.0664C53.2168 30.7166 53.3636 31.1797 53.6582 31.4482C53.9529 31.7166 54.4673 31.8506 55.1973 31.8506H56.5752C57.1871 31.8506 57.6669 32.0487 58.0068 32.4443C58.3476 32.8318 58.5315 33.3327 58.5225 33.8486C58.5224 34.4164 58.3484 34.8968 58.0068 35.29C57.6653 35.6835 57.1871 35.8848 56.5752 35.8848H55.1982C50.8348 35.8835 48.6539 33.9942 48.6553 30.2178V13.2715C48.6553 12.877 48.8924 12.5424 49.3623 12.2744C49.8359 12.0067 50.3722 11.8687 50.916 11.874ZM25.8379 6.03516C26.4754 6.03533 27.8276 6.57492 28.4883 6.95215C29.1491 7.32945 29.4785 7.77816 29.4785 8.29688C29.4872 8.5175 29.4386 8.73662 29.3369 8.93262L18.4219 35.0635C18.2099 35.6057 17.6092 35.8777 16.6191 35.8789C15.5823 35.8789 14.9551 35.6061 14.7441 35.0654L12.0225 27.3564L9.33496 35.0312C9.12173 35.5957 8.47286 35.8792 7.38867 35.8809C6.42383 35.8809 5.83443 35.5975 5.62207 35.0312L0.177734 21.0625C0.0660566 20.8556 0.00546182 20.6248 0 20.3896C6.02064e-05 19.8729 0.329686 19.4311 0.989258 19.0645C1.64806 18.6991 2.31092 18.5167 2.96973 18.5166C3.65222 18.5166 4.08839 18.7639 4.27734 19.2578L7.81445 29.2998L10.4658 20.5654C10.6548 19.9522 11.1736 19.6449 12.0225 19.6445C12.8721 19.6446 13.389 19.9523 13.5791 20.5654L16.1934 29.333L24.5303 6.77734C24.7193 6.28258 25.1553 6.03516 25.8379 6.03516ZM99.1074 29.3213C97.8396 29.3213 96.8551 29.4755 96.1797 29.7773C95.6947 29.9966 95.4951 30.2985 95.4951 30.8154C95.4951 31.3094 95.4957 32.3369 97.7822 32.3369C98.5418 32.3426 99.2888 32.1455 99.9473 31.7666C100.507 31.456 101.025 31.0742 101.484 30.6289V29.3213H99.1074ZM82.4307 23.2559C80.9863 23.2559 79.7383 23.8153 78.6094 24.9619V30.4844C79.7358 31.631 80.9887 32.1875 82.4307 32.1875C84.3232 32.1874 85.4967 31.4056 86.124 29.7285H86.1221C86.3206 29.1677 86.4218 28.4872 86.4248 27.7236C86.4248 26.2424 86.0547 25.1282 85.2959 24.3184C84.6007 23.6079 83.6578 23.2559 82.4307 23.2559ZM115.352 23.2012C114.586 23.2012 113.94 23.2926 113.423 23.4756C112.94 23.6435 112.495 23.9061 112.115 24.248C111.33 24.983 110.944 26.0753 110.944 27.5762C110.944 29.7678 111.733 31.0715 113.426 31.6787C113.938 31.8606 114.585 31.9531 115.352 31.9531C116.469 31.9531 117.612 31.3881 118.759 30.2646V24.8887C118.302 24.4541 117.802 24.0676 117.267 23.7354C116.693 23.3756 116.028 23.1903 115.352 23.2012ZM131.825 22.6533C131 22.6534 130.28 22.8899 129.667 23.3623C129.054 23.8349 128.748 24.4575 128.748 25.2295V26.1572H133.911C134.286 26.1572 134.552 26.0974 134.706 25.9756C134.86 25.8538 134.937 25.6192 134.938 25.2627C134.938 24.4931 134.636 23.8657 134.033 23.3809C133.431 22.8961 132.695 22.6533 131.825 22.6533ZM65.9453 22.4785C65.1204 22.4785 64.4015 22.7152 63.7891 23.1875C63.1751 23.6628 62.8682 24.2839 62.8682 25.0527L62.8662 25.9814H68.0312C68.4093 25.9814 68.6738 25.9218 68.8281 25.7988C68.9827 25.6758 69.0576 25.4424 69.0576 25.0859C69.0576 24.3163 68.7569 23.6889 68.1553 23.2041C67.5536 22.7193 66.8167 22.4773 65.9453 22.4785ZM154.604 19.0107C155.376 19.0109 155.971 19.6046 155.971 20.3447C155.955 21.0907 155.346 21.6874 154.6 21.6875C153.853 21.6875 153.244 21.0908 153.229 20.3447C153.229 19.6045 153.839 19.0107 154.604 19.0107ZM154.604 19.2793C154.01 19.2795 153.57 19.7604 153.569 20.3447C153.569 20.9388 154.01 21.4149 154.611 21.415C155.198 21.415 155.63 20.9393 155.63 20.3564C155.63 19.7736 155.198 19.2793 154.604 19.2793ZM154.596 19.6699C154.847 19.6699 154.961 19.7106 155.059 19.7676C155.101 19.8036 155.135 19.8487 155.157 19.8994C155.18 19.9501 155.191 20.0051 155.189 20.0605C155.189 20.2066 155.075 20.3208 154.913 20.3701V20.3857C155.043 20.4345 155.116 20.5325 155.156 20.7119C155.198 20.915 155.222 20.9962 155.255 21.0449H154.921C154.88 20.9962 154.855 20.8742 154.814 20.7197C154.791 20.5732 154.709 20.5078 154.538 20.5078H154.392V21.0449H154.083V19.7109C154.252 19.681 154.424 19.6672 154.596 19.6699ZM154.569 19.8896C154.512 19.8884 154.455 19.8939 154.398 19.9062L154.4 20.2891H154.544C154.715 20.2891 154.854 20.2288 154.854 20.0928C154.853 19.9706 154.765 19.8897 154.569 19.8896ZM44.5352 11.874C45.7452 11.8738 46.7262 12.8543 46.7275 14.0645C46.7279 14.498 46.5999 14.9224 46.3594 15.2832C46.1188 15.6438 45.7765 15.9255 45.376 16.0918C44.9756 16.258 44.5346 16.3011 44.1094 16.2168C43.6839 16.1325 43.2931 15.9245 42.9863 15.6182C42.6795 15.3117 42.4708 14.9204 42.3857 14.4951C42.301 14.0699 42.3439 13.6292 42.5098 13.2285C42.6754 12.8278 42.9561 12.4852 43.3164 12.2441C43.6769 12.003 44.1014 11.8741 44.5352 11.874Z" fill="url(#paint0_linear_6725_12657)"/>
<path d="M163.652 15.399C163.652 10.6936 167.467 6.87903 172.172 6.87903H255.616C260.322 6.87903 264.136 10.6935 264.136 15.399V34.601C264.136 39.3065 260.322 43.121 255.616 43.121H172.172C167.467 43.121 163.652 39.3065 163.652 34.6011V15.399Z" fill="#162868"/>
<path d="M163.652 15.399C163.652 10.6936 167.467 6.87903 172.172 6.87903H255.616C260.322 6.87903 264.136 10.6935 264.136 15.399V34.601C264.136 39.3065 260.322 43.121 255.616 43.121H172.172C167.467 43.121 163.652 39.3065 163.652 34.6011V15.399Z" fill="url(#paint1_linear_6725_12657)"/>
<path d="M181.703 27.3064H177.585V24.4596H181.703C182.311 24.4596 182.798 24.3583 183.166 24.1558C183.541 23.9532 183.815 23.6757 183.987 23.3231C184.167 22.9631 184.257 22.558 184.257 22.1079C184.257 21.6428 184.167 21.2115 183.987 20.8139C183.815 20.4088 183.541 20.0825 183.166 19.8349C182.798 19.5874 182.311 19.4636 181.703 19.4636H178.913V33H175.244V16.6168H181.703C183.008 16.6168 184.126 16.8531 185.056 17.3257C185.994 17.7983 186.71 18.4472 187.206 19.2723C187.708 20.09 187.959 21.0277 187.959 22.0854C187.959 23.1431 187.708 24.062 187.206 24.8422C186.71 25.6223 185.994 26.2299 185.056 26.665C184.126 27.0926 183.008 27.3064 181.703 27.3064ZM193.529 23.6607V33H190.019V20.8251H193.315L193.529 23.6607ZM197.164 20.7351L197.107 24.0095C196.957 23.987 196.762 23.9682 196.522 23.9532C196.282 23.9307 196.076 23.9195 195.904 23.9195C195.453 23.9195 195.063 23.9757 194.733 24.0883C194.411 24.1933 194.141 24.3508 193.923 24.5609C193.713 24.7709 193.556 25.0335 193.451 25.3485C193.346 25.6561 193.293 26.0124 193.293 26.4175L192.629 26.0912C192.629 25.2885 192.708 24.5534 192.865 23.8857C193.023 23.2181 193.252 22.6405 193.552 22.1529C193.852 21.6578 194.219 21.2752 194.655 21.0052C195.09 20.7351 195.585 20.6001 196.14 20.6001C196.32 20.6001 196.504 20.6113 196.691 20.6338C196.879 20.6564 197.036 20.6901 197.164 20.7351ZM197.715 27.0363V26.8C197.715 25.9074 197.843 25.086 198.098 24.3358C198.353 23.5782 198.728 22.9218 199.223 22.3667C199.718 21.8116 200.326 21.3802 201.046 21.0727C201.766 20.7576 202.591 20.6001 203.521 20.6001C204.466 20.6001 205.299 20.7576 206.019 21.0727C206.747 21.3802 207.358 21.8116 207.853 22.3667C208.348 22.9218 208.723 23.5782 208.979 24.3358C209.234 25.086 209.361 25.9074 209.361 26.8V27.0363C209.361 27.9215 209.234 28.7429 208.979 29.5006C208.723 30.2507 208.348 30.9071 207.853 31.4697C207.358 32.0248 206.751 32.4561 206.03 32.7637C205.31 33.0713 204.481 33.225 203.544 33.225C202.614 33.225 201.785 33.0713 201.057 32.7637C200.329 32.4561 199.718 32.0248 199.223 31.4697C198.728 30.9071 198.353 30.2507 198.098 29.5006C197.843 28.7429 197.715 27.9215 197.715 27.0363ZM201.237 26.8V27.0363C201.237 27.5164 201.275 27.9665 201.35 28.3866C201.432 28.8067 201.563 29.1743 201.743 29.4893C201.923 29.8044 202.16 30.0519 202.452 30.232C202.752 30.4045 203.116 30.4908 203.544 30.4908C203.971 30.4908 204.331 30.4045 204.624 30.232C204.917 30.0519 205.153 29.8044 205.333 29.4893C205.513 29.1743 205.64 28.8067 205.715 28.3866C205.798 27.9665 205.839 27.5164 205.839 27.0363V26.8C205.839 26.3275 205.798 25.8849 205.715 25.4723C205.64 25.0522 205.513 24.6809 205.333 24.3583C205.153 24.0358 204.913 23.7845 204.613 23.6044C204.32 23.4244 203.956 23.3344 203.521 23.3344C203.101 23.3344 202.745 23.4244 202.452 23.6044C202.16 23.7845 201.923 24.0358 201.743 24.3583C201.563 24.6809 201.432 25.0522 201.35 25.4723C201.275 25.8849 201.237 26.3275 201.237 26.8ZM223.933 19.7337L219.702 33H215.786L221.851 16.6168H224.327L223.933 19.7337ZM227.443 33L223.201 19.7337L222.762 16.6168H225.272L231.359 33H227.443ZM227.263 26.9013V29.7369H218.723V26.9013H227.263ZM239.179 27.3064H235.061V24.4596H239.179C239.787 24.4596 240.275 24.3583 240.642 24.1558C241.017 23.9532 241.291 23.6757 241.464 23.3231C241.644 22.9631 241.734 22.558 241.734 22.1079C241.734 21.6428 241.644 21.2115 241.464 20.8139C241.291 20.4088 241.017 20.0825 240.642 19.8349C240.275 19.5874 239.787 19.4636 239.179 19.4636H236.389V33H232.721V16.6168H239.179C240.485 16.6168 241.602 16.8531 242.533 17.3257C243.47 17.7983 244.187 18.4472 244.682 19.2723C245.184 20.09 245.436 21.0277 245.436 22.0854C245.436 23.1431 245.184 24.062 244.682 24.8422C244.187 25.6223 243.47 26.2299 242.533 26.665C241.602 27.0926 240.485 27.3064 239.179 27.3064ZM251.568 16.6168V33H247.911V16.6168H251.568Z" fill="white"/>
<defs>
<linearGradient id="paint0_linear_6725_12657" x1="2.96505" y1="21.7728" x2="155.552" y2="21.9733" gradientUnits="userSpaceOnUse">
<stop stop-color="#155DFC"/>
<stop offset="1" stop-color="#9810FA"/>
</linearGradient>
<linearGradient id="paint1_linear_6725_12657" x1="260.547" y1="34.7077" x2="173.248" y2="6.46356" gradientUnits="userSpaceOnUse">
<stop stop-color="#2B58FF"/>
<stop offset="1" stop-color="#733AEE"/>
</linearGradient>
</defs>
</svg>
