<svg width="211" height="30" viewBox="0 0 211 30" fill="none" xmlns="http://www.w3.org/2000/svg">
<g clip-path="url(#clip0_16229_1979)">
<path d="M95.6454 17.6437V15.3255C95.6454 13.8344 96.2275 12.5521 97.392 11.4785C98.5563 10.4048 99.9659 9.86836 101.62 9.86895C103.166 9.86895 104.489 10.358 105.589 11.3359C106.689 12.3138 107.24 13.5426 107.24 15.022C107.24 15.563 107.172 16.0076 107.035 16.3597C106.897 16.7118 106.689 16.9579 106.407 17.1028C106.164 17.2335 105.902 17.3243 105.631 17.3719C105.323 17.4128 105.013 17.4312 104.703 17.4269H99.1645V17.8364C99.1645 18.6174 99.4549 19.2495 100.036 19.7323C100.616 20.2151 101.39 20.4557 102.356 20.4538C103.046 20.4538 103.728 20.2814 104.401 19.9362C105.074 19.5913 105.51 19.4187 105.71 19.4187C106.092 19.4187 106.41 19.5948 106.664 19.9505C106.919 20.3062 107.047 20.6454 107.047 20.9733C107.047 21.4817 106.588 21.986 105.671 22.4861C104.754 22.986 103.613 23.2361 102.247 23.2364C100.301 23.2364 98.7144 22.7227 97.4873 21.6953C96.2603 20.6679 95.6463 19.3173 95.6454 17.6437ZM99.1645 15.3516H103.148C103.438 15.3516 103.643 15.3058 103.762 15.2118C103.88 15.1179 103.94 14.9368 103.94 14.6617C103.94 14.0679 103.707 13.584 103.243 13.2099C102.778 12.8358 102.21 12.6488 101.539 12.6488C100.902 12.6488 100.347 12.8311 99.8737 13.1957C99.4007 13.5603 99.1643 14.0404 99.1645 14.636V15.3516ZM107.748 20.8893C107.748 20.5629 107.868 20.222 108.108 19.8665C108.346 19.5123 108.624 19.3358 108.936 19.3358C109.137 19.3358 109.39 19.4274 109.695 19.6109C109.999 19.7942 110.398 19.9776 110.896 20.1705C111.395 20.3636 111.982 20.4548 112.663 20.4548C114.006 20.4548 114.679 20.0748 114.68 19.3146C114.68 18.8901 114.458 18.5541 114.013 18.3061C113.568 18.0583 113.031 17.8551 112.402 17.6964C111.775 17.5378 111.143 17.3477 110.506 17.1262C109.874 16.9076 109.312 16.5217 108.881 16.0095C108.435 15.4875 108.212 14.8193 108.213 14.0048C108.213 12.8762 108.604 11.9051 109.386 11.0916C110.168 10.278 111.406 9.87066 113.099 9.86942C114.225 9.86942 115.23 10.0421 116.114 10.3874C116.997 10.7328 117.438 11.151 117.436 11.6421C117.436 11.9525 117.313 12.3105 117.069 12.7199C116.825 13.1292 116.519 13.3342 116.155 13.3342C116.011 13.3342 115.615 13.2203 114.969 12.9926C114.323 12.7649 113.718 12.6512 113.154 12.6516C112.534 12.6516 112.06 12.7757 111.733 13.0238C111.406 13.2709 111.24 13.545 111.24 13.8457C111.24 14.1465 111.406 14.3958 111.733 14.5888C112.059 14.7818 112.466 14.9349 112.946 15.0399C113.47 15.1582 113.988 15.3045 114.497 15.4782C115.026 15.6538 115.541 15.8711 116.035 16.1282C116.507 16.3762 116.906 16.7613 117.225 17.2834C117.543 17.8055 117.707 18.4368 117.707 19.1798C117.707 20.4406 117.266 21.4316 116.383 22.1533C115.501 22.8747 114.269 23.2359 112.687 23.2364C111.323 23.2364 110.159 23.0004 109.195 22.5282C108.231 22.0561 107.748 21.5097 107.748 20.8893ZM60.4814 22.2329C61.433 22.8835 62.5601 23.2288 63.7128 23.2227C65.3412 23.2227 66.7636 22.6419 67.9463 21.4935C69.2193 20.2366 69.8649 18.5765 69.8649 16.5605C69.8649 14.576 69.2193 12.9243 67.9495 11.6554C66.7838 10.4901 65.3631 9.89876 63.7233 9.89876C62.508 9.89259 61.3223 10.2747 60.3393 10.9893C60.257 10.8048 60.1411 10.6372 59.9974 10.4952C59.362 9.86162 58.2448 9.863 57.6135 10.4952C57.4579 10.6496 57.3347 10.8337 57.2516 11.0367C57.1684 11.2396 57.1268 11.4572 57.1295 11.6765V27.4209C57.1295 27.6986 57.2891 27.9466 57.61 28.1616C57.9308 28.3766 58.3245 28.4868 58.7935 28.4868C59.2437 28.4868 59.6389 28.3739 59.9758 28.1499C60.3128 27.9256 60.4814 27.6822 60.4814 27.4241V22.2329ZM66.2794 18.1071C65.7954 19.4012 64.8899 20.0042 63.4295 20.0042C62.3169 20.0042 61.3505 19.5751 60.4814 18.6903V14.4298C61.3525 13.545 62.3151 13.1136 63.4295 13.1136C64.3765 13.1136 65.1041 13.385 65.6405 13.9333C66.2259 14.5581 66.5115 15.4177 66.5115 16.5605C66.5092 17.1496 66.4308 17.6745 66.2776 18.1071H66.2794ZM80.1805 11.517C79.2082 10.4415 77.8426 9.89692 76.1144 9.89692C74.6688 9.89774 73.2385 10.193 71.9107 10.7647C71.0554 11.1287 70.9283 11.7618 70.9283 12.107C70.9283 12.6213 71.08 13.027 71.3789 13.3117C71.8533 13.7628 72.365 13.7921 72.9026 13.6509C75.1141 12.9445 76.8735 12.9981 77.6025 13.6275C77.8825 13.8691 78.0503 14.2794 78.1066 14.8488H76.0228C74.1745 14.8488 72.7144 15.2439 71.6847 16.0232C70.6692 16.7833 70.1549 17.8431 70.1549 19.173C70.1549 20.3916 70.5954 21.3945 71.4656 22.1559C72.2783 22.8647 73.2993 23.2227 74.4998 23.2227C75.6602 23.2227 76.6443 23.0141 77.4246 22.6034C77.6775 22.4695 77.9109 22.3306 78.1311 22.1871C78.1475 22.4463 78.3065 22.6776 78.6081 22.8811C78.929 23.0985 79.3219 23.2052 79.7919 23.2052C80.242 23.2052 80.6362 23.0935 80.9745 22.8697C81.3129 22.646 81.4819 22.4036 81.4815 22.1427V15.0152C81.4833 13.6257 81.0425 12.4476 80.1805 11.517ZM76.9446 19.6801C76.4366 19.9724 75.8598 20.1241 75.2737 20.1197C73.5091 20.1197 73.5091 19.3265 73.5091 18.9456C73.5091 18.5468 73.6632 18.3145 74.0374 18.1453C74.5585 17.9123 75.3181 17.7932 76.2964 17.7932H78.13V18.8017C77.7752 19.1452 77.3766 19.4405 76.9446 19.6801ZM91.933 10.513C91.8013 10.6485 91.6927 10.805 91.6121 10.976C90.627 10.2586 89.5085 9.89692 88.2725 9.89692C86.6324 9.89692 85.2205 10.447 84.0752 11.5216C82.7459 12.7497 82.0743 14.4055 82.0743 16.4463C82.0743 18.4872 82.7482 20.143 84.0717 21.3662C85.2176 22.4476 86.6132 22.9952 88.2153 22.9952C89.4154 22.9952 90.5009 22.6699 91.4572 22.024V22.1477C91.4572 24.2642 90.5835 25.8517 88.6246 25.8517C87.4072 25.8592 86.2049 25.5793 85.1158 25.0349C84.8766 24.9415 84.6215 24.8949 84.3646 24.8972C84.1032 24.8972 83.7141 24.9848 83.3395 25.408C83.0586 25.7239 82.915 26.1157 82.915 26.5732C82.915 27.0898 83.1703 27.5314 83.6563 27.829C85.1691 28.6651 86.9111 29.091 88.8286 29.091C90.7215 29.091 92.2118 28.5028 93.2588 27.3439C94.2875 26.2056 94.8111 23.9296 94.8111 21.8525V11.7003C94.8129 11.4777 94.7697 11.2571 94.684 11.0516C94.5984 10.8462 94.4722 10.6602 94.3126 10.5048C93.6641 9.85521 92.5634 9.85888 91.933 10.513ZM91.4577 18.5207C90.5733 19.3875 89.6909 19.8236 88.8291 19.8236C88.2378 19.8236 87.7386 19.7524 87.3434 19.6121C86.0373 19.1436 85.4285 18.1375 85.4285 16.4463C85.4285 15.2884 85.727 14.4463 86.3326 13.8792C86.6256 13.6154 86.9686 13.4128 87.341 13.2833C87.7398 13.1421 88.2387 13.071 88.8291 13.071C89.3511 13.0626 89.8643 13.206 90.3066 13.4836C90.7197 13.74 91.1055 14.0381 91.4577 14.3734V18.5207ZM-0.167358 10.9022C-0.167358 10.5034 0.0872006 10.1625 0.596367 9.87951C1.10475 9.59758 1.6159 9.4573 2.12428 9.4573C2.65087 9.4573 2.98702 9.64786 3.13279 10.029L5.86176 17.7763L7.90722 11.0375C8.05301 10.5644 8.45334 10.3277 9.10828 10.3274C9.76382 10.3274 10.1626 10.5644 10.3093 11.0375L12.3264 17.8023L18.7584 0.399865C18.9042 0.0181414 19.2404 -0.172699 19.767 -0.172699C20.2589 -0.172699 21.3027 0.244004 21.8124 0.5351C22.3222 0.826195 22.5761 1.17184 22.5761 1.57204C22.5829 1.74244 22.5453 1.91166 22.4666 2.06302L14.0459 22.2233C13.8824 22.6417 13.4187 22.8514 12.6546 22.8523C11.8547 22.8523 11.371 22.6419 11.2083 22.2247L9.10828 16.2772L7.03485 22.1982C6.87041 22.6339 6.36982 22.8524 5.53307 22.8537C4.7886 22.8537 4.33445 22.6351 4.17065 22.1982L-0.0298328 11.4212C-0.116015 11.2615 -0.163144 11.0836 -0.167358 10.9022ZM19.8532 10.5667L22.3287 4.65307C22.5372 4.10297 22.7797 4.1401 22.7797 4.1401C23.0644 4.16577 23.0548 4.70213 23.0548 4.70213V11.825C23.3266 11.2373 23.7648 10.7427 24.3631 10.3393C24.9612 9.93589 25.6736 9.7328 26.4924 9.7328C27.7473 9.7328 28.8431 10.2786 29.7798 11.3703C30.7164 12.4619 31.1844 13.762 31.1839 15.2705V21.7397C31.1839 22.0857 31.0067 22.3581 30.6521 22.557C30.2977 22.756 29.8841 22.8564 29.4117 22.8578C28.9877 22.8655 28.569 22.7621 28.1973 22.5579C27.8416 22.3577 27.6646 22.0868 27.6646 21.742V15.2916C27.6646 14.6749 27.4282 14.1129 26.9554 13.6055C26.4826 13.0982 25.928 12.8441 25.2914 12.8432C24.6924 12.8432 24.1697 13.0701 23.7231 13.5239C23.2765 13.9778 23.0539 14.567 23.0548 15.2916V21.7397C23.0548 22.0112 22.8774 22.2665 22.523 22.5021C22.1686 22.7376 21.7546 22.8555 21.2811 22.8555C20.7903 22.8555 20.3764 22.7416 20.0393 22.5135C19.7022 22.2855 19.534 22.0269 19.5349 21.7373V11.9648C19.5581 11.4837 19.6658 11.0104 19.8532 10.5667ZM32.5022 21.7397V10.9875C32.5022 10.6597 32.66 10.3975 32.9736 10.1967C33.2872 9.99594 33.6918 9.89692 34.1792 9.89692C34.6665 9.89692 35.0763 9.9964 35.4004 10.1967C35.7245 10.3971 35.8855 10.6597 35.8855 10.9875V21.7397C35.8855 22.0112 35.714 22.2665 35.3724 22.5034C35.0309 22.7405 34.6353 22.8578 34.1805 22.8578C33.7084 22.8578 33.3123 22.7437 32.9887 22.5159C32.665 22.288 32.5022 22.0276 32.5022 21.7397ZM37.3712 18.4849V5.40993C37.3712 5.10553 37.5545 4.8479 37.9171 4.64116C38.2826 4.43458 38.6962 4.328 39.1158 4.33218C39.5895 4.33218 40.0043 4.43121 40.3587 4.63337C40.713 4.83553 40.8904 5.08353 40.8904 5.38059V9.89692H44.1089C44.384 9.89692 44.6004 10.0344 44.7646 10.3095C44.9286 10.5845 45.0094 10.9109 45.0094 11.2869C45.0094 11.6627 44.9277 11.9873 44.7646 12.2628C44.6013 12.5383 44.3831 12.6777 44.1089 12.6777H40.8904V18.368C40.8904 18.8696 41.0037 19.2267 41.231 19.4339C41.4583 19.641 41.855 19.7442 42.4183 19.7442H43.4819C43.954 19.7442 44.3239 19.8974 44.5862 20.2026C44.8491 20.5015 44.991 20.8879 44.9841 21.286C44.9841 21.7241 44.8498 22.095 44.5862 22.3984C44.3227 22.702 43.954 22.8569 43.4819 22.8569H42.4198C39.0531 22.856 37.3702 21.3986 37.3712 18.4849Z" fill="white"/>
<path d="M44.8176 17.5086V15.1894C44.8176 13.6977 45.3994 12.4157 46.5632 11.3433C47.727 10.2709 49.1364 9.7341 50.7917 9.73287C52.3384 9.73287 53.6619 10.2219 54.7626 11.1998C55.863 12.1778 56.413 13.4062 56.4128 14.885C56.4128 15.4274 56.3455 15.8711 56.2087 16.2222C56.0722 16.5734 55.8627 16.8218 55.5812 16.9653C55.3379 17.0971 55.0745 17.1885 54.802 17.2358C54.4946 17.2768 54.185 17.2951 53.8749 17.2908H48.336V17.6998C48.336 18.4799 48.6271 19.1121 49.2097 19.5963C49.7923 20.0765 50.5633 20.3183 51.5289 20.3183C52.2206 20.3183 52.9014 20.1454 53.5756 19.7988C54.25 19.4522 54.6836 19.2821 54.884 19.2821C55.2664 19.2821 55.5842 19.4595 55.8379 19.8139C56.0932 20.1687 56.2203 20.508 56.2203 20.8371C56.2203 21.3451 55.7618 21.8493 54.8449 22.3499C53.9282 22.8505 52.7868 23.1004 51.421 23.0999C49.4746 23.0999 47.888 22.5865 46.6609 21.5596C45.4338 20.5327 44.8193 19.1823 44.8176 17.5086ZM48.336 15.2165H52.3209C52.6126 15.2165 52.8165 15.1706 52.9356 15.0757C53.0549 14.9808 53.1126 14.8007 53.1126 14.5256C53.1126 13.9318 52.8805 13.4479 52.4163 13.0738C51.9521 12.6998 51.3837 12.5132 50.7115 12.5141C50.0749 12.5141 49.5201 12.6964 49.0475 13.061C48.5738 13.4277 48.3372 13.9068 48.3372 14.5L48.336 15.2165ZM35.8848 6.02198C35.8851 6.3566 35.7862 6.6838 35.6006 6.96221C35.415 7.24061 35.151 7.45771 34.8419 7.58603C34.5329 7.71437 34.1928 7.74815 33.8646 7.68312C33.5362 7.6181 33.2347 7.45719 32.998 7.22073C32.7612 6.98428 32.5999 6.68291 32.5343 6.35476C32.4689 6.02661 32.5022 5.68641 32.6302 5.37721C32.758 5.068 32.9748 4.80367 33.2529 4.61768C33.531 4.43167 33.8582 4.33233 34.1928 4.33224C35.1264 4.33196 35.8837 5.08827 35.8848 6.02198Z" fill="white"/>
<path d="M120.168 10.8679C120.156 11.4435 119.685 11.9039 119.11 11.9039C118.534 11.9039 118.064 11.4435 118.052 10.8679C118.052 10.2967 118.523 9.83832 119.113 9.83832C119.709 9.83832 120.168 10.2967 120.168 10.8679ZM118.315 10.8679C118.315 11.3263 118.655 11.6931 119.119 11.6931C119.572 11.6931 119.904 11.3263 119.904 10.8766C119.904 10.4269 119.572 10.0455 119.113 10.0455C118.655 10.0455 118.315 10.4168 118.315 10.8679ZM118.95 11.4079H118.711V10.3783C118.842 10.3552 118.974 10.3446 119.107 10.3467C119.301 10.3467 119.389 10.3783 119.464 10.4223C119.497 10.4501 119.523 10.4848 119.54 10.5239C119.557 10.563 119.566 10.6056 119.565 10.6483C119.565 10.7611 119.477 10.8491 119.352 10.8872V10.8995C119.452 10.9371 119.508 11.0123 119.539 11.1508C119.572 11.3075 119.59 11.3704 119.615 11.4079H119.357C119.326 11.3704 119.308 11.2764 119.276 11.1572C119.258 11.0439 119.195 10.9935 119.063 10.9935H118.95V11.4079ZM118.956 10.8244H119.067C119.199 10.8244 119.306 10.7785 119.306 10.6735C119.306 10.5791 119.237 10.5163 119.086 10.5163C119.042 10.5153 118.998 10.5196 118.955 10.5291L118.956 10.8244Z" fill="white"/>
</g>
<rect x="125.739" y="8.82608" width="85" height="14" rx="2.6087" fill="white"/>
<path d="M134.168 18.8261H132.957L132.964 17.9319H134.168C134.469 17.9319 134.722 17.8644 134.929 17.7294C135.135 17.5918 135.29 17.3918 135.395 17.1294C135.502 16.867 135.555 16.5498 135.555 16.1779V15.9066C135.555 15.6213 135.525 15.3703 135.464 15.1538C135.405 14.9372 135.317 14.7551 135.2 14.6073C135.083 14.4596 134.939 14.3488 134.768 14.2749C134.597 14.1984 134.401 14.1602 134.18 14.1602H132.934V13.2622H134.18C134.552 13.2622 134.892 13.3259 135.2 13.4533C135.511 13.5781 135.779 13.7577 136.006 13.9921C136.233 14.2265 136.407 14.5067 136.53 14.8328C136.655 15.1563 136.717 15.5168 136.717 15.9142V16.1779C136.717 16.5728 136.655 16.9332 136.53 17.2593C136.407 17.5854 136.233 17.8657 136.006 18.1C135.782 18.3319 135.513 18.5115 135.2 18.6388C134.889 18.7637 134.545 18.8261 134.168 18.8261ZM133.606 13.2622V18.8261H132.46V13.2622H133.606ZM142.773 15.9142V16.1779C142.773 16.6008 142.715 16.9804 142.601 17.3167C142.486 17.6529 142.324 17.9395 142.115 18.1765C141.906 18.4108 141.657 18.5904 141.366 18.7153C141.078 18.8401 140.759 18.9025 140.407 18.9025C140.058 18.9025 139.738 18.8401 139.448 18.7153C139.16 18.5904 138.91 18.4108 138.699 18.1765C138.488 17.9395 138.323 17.6529 138.206 17.3167C138.091 16.9804 138.034 16.6008 138.034 16.1779V15.9142C138.034 15.4888 138.091 15.1092 138.206 14.7755C138.321 14.4392 138.482 14.1526 138.691 13.9157C138.903 13.6787 139.152 13.4979 139.44 13.373C139.731 13.2482 140.05 13.1858 140.399 13.1858C140.751 13.1858 141.071 13.2482 141.359 13.373C141.649 13.4979 141.899 13.6787 142.108 13.9157C142.319 14.1526 142.482 14.4392 142.597 14.7755C142.714 15.1092 142.773 15.4888 142.773 15.9142ZM141.615 16.1779V15.9066C141.615 15.6111 141.588 15.3512 141.534 15.127C141.481 14.9028 141.402 14.7143 141.297 14.5615C141.193 14.4086 141.066 14.294 140.915 14.2176C140.765 14.1386 140.593 14.0991 140.399 14.0991C140.206 14.0991 140.034 14.1386 139.884 14.2176C139.736 14.294 139.61 14.4086 139.505 14.5615C139.403 14.7143 139.326 14.9028 139.272 15.127C139.219 15.3512 139.192 15.6111 139.192 15.9066V16.1779C139.192 16.4709 139.219 16.7307 139.272 16.9574C139.326 17.1816 139.405 17.3714 139.509 17.5268C139.614 17.6797 139.741 17.7956 139.891 17.8746C140.042 17.9535 140.213 17.993 140.407 17.993C140.601 17.993 140.773 17.9535 140.923 17.8746C141.073 17.7956 141.199 17.6797 141.301 17.5268C141.403 17.3714 141.481 17.1816 141.534 16.9574C141.588 16.7307 141.615 16.4709 141.615 16.1779ZM147.475 16.9804H148.618C148.595 17.3549 148.492 17.6873 148.308 17.9777C148.127 18.2682 147.874 18.4949 147.548 18.6579C147.224 18.821 146.835 18.9025 146.379 18.9025C146.022 18.9025 145.702 18.8414 145.419 18.7191C145.137 18.5943 144.895 18.4159 144.693 18.1841C144.495 17.9523 144.343 17.672 144.239 17.3434C144.134 17.0148 144.082 16.6466 144.082 16.239V15.8531C144.082 15.4455 144.135 15.0774 144.242 14.7487C144.352 14.4175 144.507 14.136 144.709 13.9042C144.912 13.6724 145.156 13.494 145.439 13.3692C145.721 13.2444 146.037 13.182 146.386 13.182C146.85 13.182 147.241 13.266 147.559 13.4342C147.88 13.6023 148.129 13.8341 148.305 14.1297C148.483 14.4252 148.59 14.7615 148.626 15.1385H147.479C147.466 14.9143 147.422 14.7245 147.345 14.5691C147.269 14.4112 147.153 14.2927 146.998 14.2137C146.845 14.1322 146.641 14.0915 146.386 14.0915C146.195 14.0915 146.028 14.1271 145.886 14.1984C145.743 14.2698 145.623 14.3781 145.526 14.5233C145.43 14.6685 145.357 14.8519 145.309 15.0735C145.263 15.2926 145.24 15.5499 145.24 15.8454V16.239C145.24 16.5269 145.261 16.7804 145.305 16.9995C145.348 17.216 145.414 17.3994 145.503 17.5498C145.595 17.6975 145.712 17.8096 145.855 17.886C146 17.9599 146.175 17.9969 146.379 17.9969C146.618 17.9969 146.815 17.9586 146.971 17.8822C147.126 17.8058 147.245 17.6924 147.326 17.5421C147.41 17.3918 147.46 17.2046 147.475 16.9804ZM153.095 13.2622H154.238V16.9383C154.238 17.3663 154.146 17.7268 153.963 18.0198C153.782 18.3127 153.531 18.5331 153.21 18.6809C152.891 18.8286 152.525 18.9025 152.109 18.9025C151.694 18.9025 151.325 18.8286 151.001 18.6809C150.68 18.5331 150.428 18.3127 150.244 18.0198C150.064 17.7268 149.973 17.3663 149.973 16.9383V13.2622H151.12V16.9383C151.12 17.188 151.159 17.3918 151.238 17.5498C151.317 17.7077 151.43 17.8236 151.578 17.8975C151.728 17.9714 151.905 18.0083 152.109 18.0083C152.318 18.0083 152.495 17.9714 152.64 17.8975C152.788 17.8236 152.9 17.7077 152.977 17.5498C153.056 17.3918 153.095 17.188 153.095 16.9383V13.2622ZM156.357 13.2622H157.328L158.757 17.3472L160.186 13.2622H161.157L159.147 18.8261H158.367L156.357 13.2622ZM155.834 13.2622H156.801L156.976 17.244V18.8261H155.834V13.2622ZM160.714 13.2622H161.684V18.8261H160.538V17.244L160.714 13.2622ZM167.075 17.9319V18.8261H164.113V17.9319H167.075ZM164.488 13.2622V18.8261H163.341V13.2622H164.488ZM166.689 15.5283V16.3995H164.113V15.5283H166.689ZM167.071 13.2622V14.1602H164.113V13.2622H167.071ZM172.924 13.2622V18.8261H171.778L169.542 15.0965V18.8261H168.396V13.2622H169.542L171.782 16.9957V13.2622H172.924ZM176.947 13.2622V18.8261H175.804V13.2622H176.947ZM178.659 13.2622V14.1602H174.119V13.2622H178.659ZM181.814 14.2137L180.301 18.8261H179.082L181.149 13.2622H181.925L181.814 14.2137ZM183.071 18.8261L181.554 14.2137L181.432 13.2622H182.215L184.294 18.8261H183.071ZM183.002 16.7549V17.6529H180.064V16.7549H183.002ZM187.476 13.2622V18.8261H186.333V13.2622H187.476ZM189.188 13.2622V14.1602H184.648V13.2622H189.188ZM191.712 13.2622V18.8261H190.57V13.2622H191.712ZM198.009 15.9142V16.1779C198.009 16.6008 197.951 16.9804 197.837 17.3167C197.722 17.6529 197.56 17.9395 197.351 18.1765C197.142 18.4108 196.893 18.5904 196.602 18.7153C196.314 18.8401 195.995 18.9025 195.643 18.9025C195.294 18.9025 194.974 18.8401 194.684 18.7153C194.396 18.5904 194.146 18.4108 193.935 18.1765C193.724 17.9395 193.559 17.6529 193.442 17.3167C193.327 16.9804 193.27 16.6008 193.27 16.1779V15.9142C193.27 15.4888 193.327 15.1092 193.442 14.7755C193.557 14.4392 193.718 14.1526 193.927 13.9157C194.139 13.6787 194.389 13.4979 194.676 13.373C194.967 13.2482 195.287 13.1858 195.636 13.1858C195.987 13.1858 196.307 13.2482 196.595 13.373C196.885 13.4979 197.135 13.6787 197.344 13.9157C197.555 14.1526 197.718 14.4392 197.833 14.7755C197.95 15.1092 198.009 15.4888 198.009 15.9142ZM196.851 16.1779V15.9066C196.851 15.6111 196.824 15.3512 196.77 15.127C196.717 14.9028 196.638 14.7143 196.534 14.5615C196.429 14.4086 196.302 14.294 196.151 14.2176C196.001 14.1386 195.829 14.0991 195.636 14.0991C195.442 14.0991 195.27 14.1386 195.12 14.2176C194.972 14.294 194.846 14.4086 194.741 14.5615C194.639 14.7143 194.562 14.9028 194.508 15.127C194.455 15.3512 194.428 15.6111 194.428 15.9066V16.1779C194.428 16.4709 194.455 16.7307 194.508 16.9574C194.562 17.1816 194.641 17.3714 194.745 17.5268C194.85 17.6797 194.977 17.7956 195.127 17.8746C195.278 17.9535 195.45 17.993 195.643 17.993C195.837 17.993 196.009 17.9535 196.159 17.8746C196.309 17.7956 196.435 17.6797 196.537 17.5268C196.639 17.3714 196.717 17.1816 196.77 16.9574C196.824 16.7307 196.851 16.4709 196.851 16.1779ZM204.014 13.2622V18.8261H202.868L200.633 15.0965V18.8261H199.486V13.2622H200.633L202.872 16.9957V13.2622H204.014Z" fill="#3C4147"/>
<defs>
<clipPath id="clip0_16229_1979">
<rect width="120" height="29.415" fill="white"/>
</clipPath>
</defs>
</svg>
