<svg width="211" height="29" viewBox="0 0 211 29" fill="none" xmlns="http://www.w3.org/2000/svg">
<g clip-path="url(#clip0_16229_1977)">
<path d="M95.6454 17.3948V15.1093C95.6454 13.6392 96.2275 12.375 97.392 11.3165C98.5563 10.258 99.9659 9.72913 101.62 9.72971C103.166 9.72971 104.489 10.2118 105.589 11.176C106.689 12.1401 107.24 13.3515 107.24 14.8101C107.24 15.3434 107.172 15.7818 107.035 16.1289C106.897 16.476 106.689 16.7187 106.407 16.8615C106.164 16.9903 105.902 17.0799 105.631 17.1268C105.323 17.1671 105.013 17.1853 104.703 17.181H99.1645V17.5847C99.1645 18.3547 99.4549 18.9779 100.036 19.4539C100.616 19.9298 101.39 20.1671 102.356 20.1652C103.046 20.1652 103.728 19.9952 104.401 19.6549C105.074 19.3149 105.51 19.1447 105.71 19.1447C106.092 19.1447 106.41 19.3184 106.664 19.669C106.919 20.0196 107.047 20.3541 107.047 20.6773C107.047 21.1786 106.588 21.6758 105.671 22.1688C104.754 22.6616 103.613 22.9082 102.247 22.9086C100.301 22.9086 98.7144 22.4021 97.4873 21.3892C96.2603 20.3763 95.6463 19.0447 95.6454 17.3948ZM99.1645 15.135H103.148C103.438 15.135 103.643 15.0898 103.762 14.9972C103.88 14.9045 103.94 14.726 103.94 14.4549C103.94 13.8695 103.707 13.3923 103.243 13.0235C102.778 12.6547 102.21 12.4703 101.539 12.4703C100.902 12.4703 100.347 12.6501 99.8737 13.0095C99.4007 13.369 99.1643 13.8423 99.1645 14.4295V15.135ZM107.748 20.5946C107.748 20.2727 107.868 19.9367 108.108 19.5862C108.346 19.237 108.624 19.063 108.936 19.063C109.137 19.063 109.39 19.1533 109.695 19.3342C109.999 19.5149 110.398 19.6957 110.896 19.8859C111.395 20.0762 111.982 20.1662 112.663 20.1662C114.006 20.1662 114.679 19.7915 114.68 19.0421C114.68 18.6236 114.458 18.2923 114.013 18.0478C113.568 17.8035 113.031 17.6031 112.402 17.4467C111.775 17.2904 111.143 17.103 110.506 16.8845C109.874 16.6691 109.312 16.2886 108.881 15.7836C108.435 15.2689 108.212 14.6102 108.213 13.8072C108.213 12.6945 108.604 11.7372 109.386 10.9351C110.168 10.133 111.406 9.7314 113.099 9.73017C114.225 9.73017 115.23 9.90042 116.114 10.2409C116.997 10.5813 117.438 10.9937 117.436 11.4779C117.436 11.7838 117.313 12.1368 117.069 12.5404C116.825 12.944 116.519 13.146 116.155 13.146C116.011 13.146 115.615 13.0338 114.969 12.8093C114.323 12.5848 113.718 12.4727 113.154 12.4731C112.534 12.4731 112.06 12.5954 111.733 12.84C111.406 13.0836 111.24 13.3539 111.24 13.6504C111.24 13.9469 111.406 14.1927 111.733 14.383C112.059 14.5733 112.466 14.7242 112.946 14.8277C113.47 14.9444 113.988 15.0886 114.497 15.2598C115.026 15.4329 115.541 15.6472 116.035 15.9006C116.507 16.1452 116.906 16.5248 117.225 17.0396C117.543 17.5543 117.707 18.1766 117.707 18.9092C117.707 20.1522 117.266 21.1292 116.383 21.8407C115.501 22.552 114.269 22.9081 112.687 22.9086C111.323 22.9086 110.159 22.6759 109.195 22.2103C108.231 21.7449 107.748 21.2062 107.748 20.5946ZM60.4814 21.9192C61.433 22.5606 62.5601 22.901 63.7128 22.8951C65.3412 22.8951 66.7636 22.3224 67.9463 21.1902C69.2193 19.9511 69.8649 18.3144 69.8649 16.3268C69.8649 14.3703 69.2193 12.742 67.9495 11.491C66.7838 10.3421 65.3631 9.75909 63.7233 9.75909C62.508 9.75301 61.3223 10.1297 60.3393 10.8343C60.257 10.6523 60.1411 10.4871 59.9974 10.3471C59.362 9.72248 58.2448 9.72384 57.6135 10.3471C57.4579 10.4993 57.3347 10.6809 57.2516 10.881C57.1684 11.081 57.1268 11.2955 57.1295 11.5118V27.034C57.1295 27.3078 57.2891 27.5523 57.61 27.7643C57.9308 27.9762 58.3245 28.0849 58.7935 28.0849C59.2437 28.0849 59.6389 27.9736 59.9758 27.7527C60.3128 27.5316 60.4814 27.2917 60.4814 27.0372V21.9192ZM66.2794 17.8517C65.7954 19.1275 64.8899 19.7219 63.4295 19.7219C62.3169 19.7219 61.3505 19.2989 60.4814 18.4266V14.2262C61.3525 13.3539 62.3151 12.9286 63.4295 12.9286C64.3765 12.9286 65.1041 13.1962 65.6405 13.7367C66.2259 14.3527 66.5115 15.2001 66.5115 16.3268C66.5092 16.9076 66.4308 17.4251 66.2776 17.8517H66.2794ZM80.1805 11.3545C79.2082 10.2942 77.8426 9.75728 76.1144 9.75728C74.6688 9.75809 73.2385 10.0492 71.9107 10.6128C71.0554 10.9717 70.9283 11.5958 70.9283 11.9361C70.9283 12.4432 71.08 12.8432 71.3789 13.1239C71.8533 13.5686 72.365 13.5975 72.9026 13.4583C75.1141 12.7618 76.8735 12.8147 77.6025 13.4353C77.8825 13.6734 78.0503 14.0779 78.1066 14.6393H76.0228C74.1745 14.6393 72.7144 15.0288 71.6847 15.7972C70.6692 16.5465 70.1549 17.5914 70.1549 18.9025C70.1549 20.1038 70.5954 21.0927 71.4656 21.8433C72.2783 22.5421 73.2993 22.8951 74.4998 22.8951C75.6602 22.8951 76.6443 22.6894 77.4246 22.2845C77.6775 22.1525 77.9109 22.0156 78.1311 21.8741C78.1475 22.1296 78.3065 22.3576 78.6081 22.5583C78.929 22.7726 79.3219 22.8778 79.7919 22.8778C80.242 22.8778 80.6362 22.7676 80.9745 22.5471C81.3129 22.3265 81.4819 22.0874 81.4815 21.8303V14.8033C81.4833 13.4334 81.0425 12.2719 80.1805 11.3545ZM76.9446 19.4024C76.4366 19.6906 75.8598 19.8402 75.2737 19.8358C73.5091 19.8358 73.5091 19.0539 73.5091 18.6783C73.5091 18.2851 73.6632 18.0561 74.0374 17.8893C74.5585 17.6596 75.3181 17.5422 76.2964 17.5422H78.13V18.5364C77.7752 18.8751 77.3766 19.1662 76.9446 19.4024ZM91.933 10.3647C91.8013 10.4983 91.6927 10.6525 91.6121 10.8212C90.627 10.1139 89.5085 9.75728 88.2725 9.75728C86.6324 9.75728 85.2205 10.2996 84.0752 11.359C82.7459 12.5698 82.0743 14.2022 82.0743 16.2143C82.0743 18.2264 82.7482 19.8588 84.0717 21.0647C85.2176 22.1309 86.6132 22.6708 88.2153 22.6708C89.4154 22.6708 90.5009 22.35 91.4572 21.7133V21.8352C91.4572 23.9218 90.5835 25.487 88.6246 25.487C87.4072 25.4943 86.2049 25.2184 85.1158 24.6816C84.8766 24.5895 84.6215 24.5437 84.3646 24.546C84.1032 24.546 83.7141 24.6323 83.3395 25.0495C83.0586 25.3609 82.915 25.7473 82.915 26.1983C82.915 26.7076 83.1703 27.143 83.6563 27.4363C85.1691 28.2606 86.9111 28.6805 88.8286 28.6805C90.7215 28.6805 92.2118 28.1007 93.2588 26.9581C94.2875 25.8358 94.8111 23.5919 94.8111 21.5442V11.5353C94.8129 11.3158 94.7697 11.0983 94.684 10.8957C94.5984 10.6931 94.4722 10.5098 94.3126 10.3566C93.6641 9.71616 92.5634 9.71978 91.933 10.3647ZM91.4577 18.2594C90.5733 19.114 89.6909 19.5439 88.8291 19.5439C88.2378 19.5439 87.7386 19.4737 87.3434 19.3354C86.0373 18.8735 85.4285 17.8815 85.4285 16.2143C85.4285 15.0727 85.727 14.2424 86.3326 13.6834C86.6256 13.4233 86.9686 13.2236 87.341 13.0958C87.7398 12.9566 88.2387 12.8866 88.8291 12.8866C89.3511 12.8783 89.8643 13.0196 90.3066 13.2934C90.7197 13.5461 91.1055 13.84 91.4577 14.1706V18.2594ZM-0.167358 10.7484C-0.167358 10.3552 0.0872006 10.0191 0.596367 9.74011C1.10475 9.46217 1.6159 9.32386 2.12428 9.32386C2.65087 9.32386 2.98702 9.51173 3.13279 9.88745L5.86176 17.5255L7.90722 10.8817C8.05301 10.4153 8.45334 10.182 9.10828 10.1817C9.76382 10.1817 10.1626 10.4153 10.3093 10.8817L12.3264 17.5511L18.7584 0.394228C18.9042 0.0178901 19.2404 -0.170258 19.767 -0.170258C20.2589 -0.170258 21.3027 0.240566 21.8124 0.527555C22.3222 0.814542 22.5761 1.15531 22.5761 1.54987C22.5829 1.71786 22.5453 1.88469 22.4666 2.03391L14.0459 21.9098C13.8824 22.3223 13.4187 22.529 12.6546 22.5298C11.8547 22.5298 11.371 22.3224 11.2083 21.9112L9.10828 16.0475L7.03485 21.885C6.87041 22.3145 6.36982 22.53 5.53307 22.5312C4.7886 22.5312 4.33445 22.3158 4.17065 21.885L-0.0298328 11.26C-0.116015 11.1026 -0.163144 10.9273 -0.167358 10.7484ZM19.8532 10.4176L22.3287 4.58742C22.5372 4.04508 22.7797 4.08169 22.7797 4.08169C23.0644 4.107 23.0548 4.63579 23.0548 4.63579V11.6582C23.3266 11.0788 23.7648 10.5911 24.3631 10.1934C24.9612 9.79571 25.6736 9.59548 26.4924 9.59548C27.7473 9.59548 28.8431 10.1336 29.7798 11.2099C30.7164 12.2861 31.1844 13.5678 31.1839 15.055V21.4329C31.1839 21.7741 31.0067 22.0426 30.6521 22.2388C30.2977 22.4349 29.8841 22.5339 29.4117 22.5353C28.9877 22.5428 28.569 22.4409 28.1973 22.2397C27.8416 22.0423 27.6646 21.7751 27.6646 21.4352V15.0758C27.6646 14.4678 27.4282 13.9137 26.9554 13.4136C26.4826 12.9134 25.928 12.6629 25.2914 12.662C24.6924 12.662 24.1697 12.8857 23.7231 13.3331C23.2765 13.7806 23.0539 14.3614 23.0548 15.0758V21.4329C23.0548 21.7006 22.8774 21.9523 22.523 22.1846C22.1686 22.4168 21.7546 22.533 21.2811 22.533C20.7903 22.533 20.3764 22.4207 20.0393 22.1959C19.7022 21.9711 19.534 21.7161 19.5349 21.4306V11.796C19.5581 11.3217 19.6658 10.8551 19.8532 10.4176ZM32.5022 21.4329V10.8325C32.5022 10.5093 32.66 10.2508 32.9736 10.0529C33.2872 9.8549 33.6918 9.75728 34.1792 9.75728C34.6665 9.75728 35.0763 9.85536 35.4004 10.0529C35.7245 10.2504 35.8855 10.5093 35.8855 10.8325V21.4329C35.8855 21.7006 35.714 21.9523 35.3724 22.1859C35.0309 22.4196 34.6353 22.5353 34.1805 22.5353C33.7084 22.5353 33.3123 22.4228 32.9887 22.1982C32.665 21.9736 32.5022 21.7168 32.5022 21.4329ZM37.3712 18.2241V5.3336C37.3712 5.03349 37.5545 4.77951 37.9171 4.57568C38.2826 4.37201 38.6962 4.26694 39.1158 4.27105C39.5895 4.27105 40.0043 4.36869 40.3587 4.568C40.713 4.76731 40.8904 5.01181 40.8904 5.30467V9.75728H44.1089C44.384 9.75728 44.6004 9.89286 44.7646 10.164C44.9286 10.4352 45.0094 10.757 45.0094 11.1276C45.0094 11.4982 44.9277 11.8182 44.7646 12.0898C44.6013 12.3614 44.3831 12.4988 44.1089 12.4988H40.8904V18.1088C40.8904 18.6034 41.0037 18.9554 41.231 19.1597C41.4583 19.3639 41.855 19.4657 42.4183 19.4657H43.4819C43.954 19.4657 44.3239 19.6166 44.5862 19.9175C44.8491 20.2123 44.991 20.5931 44.9841 20.9856C44.9841 21.4176 44.8498 21.7832 44.5862 22.0823C44.3227 22.3817 43.954 22.5344 43.4819 22.5344H42.4198C39.0531 22.5335 37.3702 21.0967 37.3712 18.2241Z" fill="#6D7580"/>
<path d="M44.8176 17.2615V14.9751C44.8176 13.5045 45.3995 12.2405 46.5632 11.1832C47.727 10.126 49.1364 9.59676 50.7917 9.59555C52.3384 9.59555 53.6619 10.0776 54.7626 11.0418C55.8631 12.0059 56.413 13.217 56.4129 14.675C56.4129 15.2097 56.3455 15.6472 56.2087 15.9933C56.0722 16.3395 55.8627 16.5845 55.5812 16.726C55.3379 16.8559 55.0746 16.946 54.802 16.9926C54.4946 17.033 54.185 17.0511 53.875 17.0468H48.336V17.4501C48.336 18.2192 48.6271 18.8424 49.2097 19.3198C49.7923 19.7933 50.5633 20.0316 51.5289 20.0316C52.2206 20.0316 52.9014 19.8611 53.5756 19.5194C54.25 19.1778 54.6836 19.0101 54.884 19.0101C55.2664 19.0101 55.5842 19.185 55.8379 19.5344C56.0932 19.8841 56.2203 20.2186 56.2203 20.543C56.2203 21.044 55.7618 21.541 54.8449 22.0345C53.9283 22.5281 52.7868 22.7745 51.421 22.774C49.4746 22.774 47.888 22.2678 46.6609 21.2554C45.4339 20.243 44.8194 18.9117 44.8176 17.2615ZM48.336 15.0018H52.3209C52.6126 15.0018 52.8165 14.9566 52.9356 14.863C53.0549 14.7695 53.1127 14.5918 53.1127 14.3207C53.1127 13.7353 52.8805 13.2581 52.4163 12.8893C51.9521 12.5206 51.3838 12.3366 50.7115 12.3375C50.0749 12.3375 49.5201 12.5173 49.0475 12.8767C48.5738 13.2383 48.3372 13.7105 48.3372 14.2954L48.336 15.0018ZM35.8848 5.93701C35.8852 6.26691 35.7862 6.5895 35.6006 6.86398C35.415 7.13844 35.151 7.35248 34.8419 7.47899C34.5329 7.60552 34.1928 7.63883 33.8646 7.57471C33.5362 7.51061 33.2348 7.35197 32.998 7.11885C32.7613 6.88574 32.5999 6.58862 32.5343 6.2651C32.4689 5.94158 32.5022 5.60618 32.6302 5.30134C32.7581 4.99649 32.9748 4.73589 33.2529 4.55252C33.5311 4.36914 33.8582 4.27121 34.1928 4.27112C35.1264 4.27084 35.8837 5.01647 35.8848 5.93701Z" fill="#6D7580"/>
<path d="M120.168 10.7146C120.156 11.2821 119.685 11.736 119.11 11.736C118.534 11.736 118.064 11.2821 118.052 10.7146C118.052 10.1515 118.523 9.69952 119.113 9.69952C119.709 9.69952 120.168 10.1515 120.168 10.7146ZM118.315 10.7146C118.315 11.1665 118.655 11.5281 119.119 11.5281C119.572 11.5281 119.904 11.1665 119.904 10.7232C119.904 10.2798 119.572 9.90381 119.113 9.90381C118.655 9.90381 118.315 10.2699 118.315 10.7146ZM118.95 11.247H118.711V10.2319C118.842 10.2091 118.974 10.1987 119.107 10.2007C119.301 10.2007 119.389 10.2319 119.464 10.2753C119.497 10.3027 119.523 10.3369 119.54 10.3755C119.557 10.414 119.566 10.4559 119.565 10.4981C119.565 10.6093 119.477 10.6961 119.352 10.7336V10.7458C119.452 10.7828 119.508 10.857 119.539 10.9935C119.572 11.148 119.59 11.2099 119.615 11.247H119.357C119.326 11.2099 119.308 11.1173 119.276 10.9998C119.258 10.8881 119.195 10.8384 119.063 10.8384H118.95V11.247ZM118.956 10.6717H119.067C119.199 10.6717 119.306 10.6265 119.306 10.523C119.306 10.4299 119.237 10.368 119.086 10.368C119.042 10.367 118.998 10.3712 118.955 10.3806L118.956 10.6717Z" fill="#6D7580"/>
</g>
<rect x="125.739" y="8.82608" width="85" height="14" rx="2.6087" fill="#E8EAEA"/>
<path d="M134.168 18.8261H132.957L132.964 17.9319H134.168C134.469 17.9319 134.722 17.8644 134.929 17.7294C135.135 17.5918 135.29 17.3918 135.395 17.1294C135.502 16.867 135.555 16.5498 135.555 16.1779V15.9066C135.555 15.6213 135.525 15.3703 135.464 15.1538C135.405 14.9372 135.317 14.7551 135.2 14.6073C135.083 14.4596 134.939 14.3488 134.768 14.2749C134.597 14.1984 134.401 14.1602 134.18 14.1602H132.934V13.2622H134.18C134.552 13.2622 134.892 13.3259 135.2 13.4533C135.511 13.5781 135.779 13.7577 136.006 13.9921C136.233 14.2265 136.407 14.5067 136.53 14.8328C136.655 15.1563 136.717 15.5168 136.717 15.9142V16.1779C136.717 16.5728 136.655 16.9332 136.53 17.2593C136.407 17.5854 136.233 17.8657 136.006 18.1C135.782 18.3319 135.513 18.5115 135.2 18.6388C134.889 18.7637 134.545 18.8261 134.168 18.8261ZM133.606 13.2622V18.8261H132.46V13.2622H133.606ZM142.773 15.9142V16.1779C142.773 16.6008 142.715 16.9804 142.601 17.3167C142.486 17.6529 142.324 17.9395 142.115 18.1765C141.906 18.4108 141.657 18.5904 141.366 18.7153C141.078 18.8401 140.759 18.9025 140.407 18.9025C140.058 18.9025 139.738 18.8401 139.448 18.7153C139.16 18.5904 138.91 18.4108 138.699 18.1765C138.488 17.9395 138.323 17.6529 138.206 17.3167C138.091 16.9804 138.034 16.6008 138.034 16.1779V15.9142C138.034 15.4888 138.091 15.1092 138.206 14.7755C138.321 14.4392 138.482 14.1526 138.691 13.9157C138.903 13.6787 139.152 13.4979 139.44 13.373C139.731 13.2482 140.05 13.1858 140.399 13.1858C140.751 13.1858 141.071 13.2482 141.359 13.373C141.649 13.4979 141.899 13.6787 142.108 13.9157C142.319 14.1526 142.482 14.4392 142.597 14.7755C142.714 15.1092 142.773 15.4888 142.773 15.9142ZM141.615 16.1779V15.9066C141.615 15.6111 141.588 15.3512 141.534 15.127C141.481 14.9028 141.402 14.7143 141.297 14.5615C141.193 14.4086 141.066 14.294 140.915 14.2176C140.765 14.1386 140.593 14.0991 140.399 14.0991C140.206 14.0991 140.034 14.1386 139.884 14.2176C139.736 14.294 139.61 14.4086 139.505 14.5615C139.403 14.7143 139.326 14.9028 139.272 15.127C139.219 15.3512 139.192 15.6111 139.192 15.9066V16.1779C139.192 16.4709 139.219 16.7307 139.272 16.9574C139.326 17.1816 139.405 17.3714 139.509 17.5268C139.614 17.6797 139.741 17.7956 139.891 17.8746C140.042 17.9535 140.213 17.993 140.407 17.993C140.601 17.993 140.773 17.9535 140.923 17.8746C141.073 17.7956 141.199 17.6797 141.301 17.5268C141.403 17.3714 141.481 17.1816 141.534 16.9574C141.588 16.7307 141.615 16.4709 141.615 16.1779ZM147.475 16.9804H148.618C148.595 17.3549 148.492 17.6873 148.308 17.9777C148.127 18.2682 147.874 18.4949 147.548 18.6579C147.224 18.821 146.835 18.9025 146.379 18.9025C146.022 18.9025 145.702 18.8414 145.419 18.7191C145.137 18.5943 144.895 18.4159 144.693 18.1841C144.495 17.9523 144.343 17.672 144.239 17.3434C144.134 17.0148 144.082 16.6466 144.082 16.239V15.8531C144.082 15.4455 144.135 15.0774 144.242 14.7487C144.352 14.4175 144.507 14.136 144.709 13.9042C144.912 13.6724 145.156 13.494 145.439 13.3692C145.721 13.2444 146.037 13.182 146.386 13.182C146.85 13.182 147.241 13.266 147.559 13.4342C147.88 13.6023 148.129 13.8341 148.305 14.1297C148.483 14.4252 148.59 14.7615 148.626 15.1385H147.479C147.466 14.9143 147.422 14.7245 147.345 14.5691C147.269 14.4112 147.153 14.2927 146.998 14.2137C146.845 14.1322 146.641 14.0915 146.386 14.0915C146.195 14.0915 146.028 14.1271 145.886 14.1984C145.743 14.2698 145.623 14.3781 145.526 14.5233C145.43 14.6685 145.357 14.8519 145.309 15.0735C145.263 15.2926 145.24 15.5499 145.24 15.8454V16.239C145.24 16.5269 145.261 16.7804 145.305 16.9995C145.348 17.216 145.414 17.3994 145.503 17.5498C145.595 17.6975 145.712 17.8096 145.855 17.886C146 17.9599 146.175 17.9969 146.379 17.9969C146.618 17.9969 146.815 17.9586 146.971 17.8822C147.126 17.8058 147.245 17.6924 147.326 17.5421C147.41 17.3918 147.46 17.2046 147.475 16.9804ZM153.095 13.2622H154.238V16.9383C154.238 17.3663 154.146 17.7268 153.963 18.0198C153.782 18.3127 153.531 18.5331 153.21 18.6809C152.891 18.8286 152.525 18.9025 152.109 18.9025C151.694 18.9025 151.325 18.8286 151.001 18.6809C150.68 18.5331 150.428 18.3127 150.244 18.0198C150.064 17.7268 149.973 17.3663 149.973 16.9383V13.2622H151.12V16.9383C151.12 17.188 151.159 17.3918 151.238 17.5498C151.317 17.7077 151.43 17.8236 151.578 17.8975C151.728 17.9714 151.905 18.0083 152.109 18.0083C152.318 18.0083 152.495 17.9714 152.64 17.8975C152.788 17.8236 152.9 17.7077 152.977 17.5498C153.056 17.3918 153.095 17.188 153.095 16.9383V13.2622ZM156.357 13.2622H157.328L158.757 17.3472L160.186 13.2622H161.157L159.147 18.8261H158.367L156.357 13.2622ZM155.834 13.2622H156.801L156.976 17.244V18.8261H155.834V13.2622ZM160.714 13.2622H161.684V18.8261H160.538V17.244L160.714 13.2622ZM167.075 17.9319V18.8261H164.113V17.9319H167.075ZM164.488 13.2622V18.8261H163.341V13.2622H164.488ZM166.689 15.5283V16.3995H164.113V15.5283H166.689ZM167.071 13.2622V14.1602H164.113V13.2622H167.071ZM172.924 13.2622V18.8261H171.778L169.542 15.0965V18.8261H168.396V13.2622H169.542L171.782 16.9957V13.2622H172.924ZM176.947 13.2622V18.8261H175.804V13.2622H176.947ZM178.659 13.2622V14.1602H174.119V13.2622H178.659ZM181.814 14.2137L180.301 18.8261H179.082L181.149 13.2622H181.925L181.814 14.2137ZM183.071 18.8261L181.554 14.2137L181.432 13.2622H182.215L184.294 18.8261H183.071ZM183.002 16.7549V17.6529H180.064V16.7549H183.002ZM187.476 13.2622V18.8261H186.333V13.2622H187.476ZM189.188 13.2622V14.1602H184.648V13.2622H189.188ZM191.712 13.2622V18.8261H190.57V13.2622H191.712ZM198.009 15.9142V16.1779C198.009 16.6008 197.951 16.9804 197.837 17.3167C197.722 17.6529 197.56 17.9395 197.351 18.1765C197.142 18.4108 196.893 18.5904 196.602 18.7153C196.314 18.8401 195.995 18.9025 195.643 18.9025C195.294 18.9025 194.974 18.8401 194.684 18.7153C194.396 18.5904 194.146 18.4108 193.935 18.1765C193.724 17.9395 193.559 17.6529 193.442 17.3167C193.327 16.9804 193.27 16.6008 193.27 16.1779V15.9142C193.27 15.4888 193.327 15.1092 193.442 14.7755C193.557 14.4392 193.718 14.1526 193.927 13.9157C194.139 13.6787 194.389 13.4979 194.676 13.373C194.967 13.2482 195.287 13.1858 195.636 13.1858C195.987 13.1858 196.307 13.2482 196.595 13.373C196.885 13.4979 197.135 13.6787 197.344 13.9157C197.555 14.1526 197.718 14.4392 197.833 14.7755C197.95 15.1092 198.009 15.4888 198.009 15.9142ZM196.851 16.1779V15.9066C196.851 15.6111 196.824 15.3512 196.77 15.127C196.717 14.9028 196.638 14.7143 196.534 14.5615C196.429 14.4086 196.302 14.294 196.151 14.2176C196.001 14.1386 195.829 14.0991 195.636 14.0991C195.442 14.0991 195.27 14.1386 195.12 14.2176C194.972 14.294 194.846 14.4086 194.741 14.5615C194.639 14.7143 194.562 14.9028 194.508 15.127C194.455 15.3512 194.428 15.6111 194.428 15.9066V16.1779C194.428 16.4709 194.455 16.7307 194.508 16.9574C194.562 17.1816 194.641 17.3714 194.745 17.5268C194.85 17.6797 194.977 17.7956 195.127 17.8746C195.278 17.9535 195.45 17.993 195.643 17.993C195.837 17.993 196.009 17.9535 196.159 17.8746C196.309 17.7956 196.435 17.6797 196.537 17.5268C196.639 17.3714 196.717 17.1816 196.77 16.9574C196.824 16.7307 196.851 16.4709 196.851 16.1779ZM204.014 13.2622V18.8261H202.868L200.633 15.0965V18.8261H199.486V13.2622H200.633L202.872 16.9957V13.2622H204.014Z" fill="#3C4147"/>
<defs>
<clipPath id="clip0_16229_1977">
<rect width="120" height="29" fill="white"/>
</clipPath>
</defs>
</svg>
